<svg width="85" height="101" viewBox="0 0 85 101" fill="none" xmlns="http://www.w3.org/2000/svg">
    <path d="M67.2917 38.0494C67.2917 34.2191 66.6504 30.4264 65.4045 26.8878C64.1586 23.3491 62.3325 20.1338 60.0304 17.4254C57.7282 14.717 54.9952 12.5686 51.9874 11.1029C48.9795 9.63711 45.7557 8.88269 42.5 8.88269C39.2443 8.88269 36.0205 9.63711 33.0126 11.1029C30.0048 12.5686 27.2718 14.717 24.9696 17.4254C22.6675 20.1338 20.8414 23.3491 19.5955 26.8878C18.3496 30.4264 17.7083 34.2191 17.7083 38.0494C17.7083 43.8285 19.1604 49.2035 21.6219 53.7369H21.5935C29.9519 69.1327 42.5 92.216 42.5 92.216L63.4065 53.7369H63.3817C65.9331 49.0551 67.2901 43.6108 67.2917 38.0494V38.0494ZM42.5 50.5494C39.6821 50.5494 36.9796 49.2324 34.987 46.8882C32.9944 44.544 31.875 41.3646 31.875 38.0494C31.875 34.7342 32.9944 31.5547 34.987 29.2105C36.9796 26.8663 39.6821 25.5494 42.5 25.5494C45.3179 25.5494 48.0204 26.8663 50.013 29.2105C52.0056 31.5547 53.125 34.7342 53.125 38.0494C53.125 41.3646 52.0056 44.544 50.013 46.8882C48.0204 49.2324 45.3179 50.5494 42.5 50.5494Z" fill="#0F980C"/>
</svg>
