<svg width="916" height="492" viewBox="0 0 916 492" fill="none" xmlns="http://www.w3.org/2000/svg">
    <g clip-path="url(#clip0)">
        <path d="M449.756 57.084L449.481 57.4832H448.748L447.466 57.1838L446.367 58.4811L445.726 60.0779L445.268 60.7765H444.718L444.168 60.0779L443.71 59.0799L443.619 57.4832L443.894 56.3854L443.802 54.7886L442.52 53.9903L439.13 50.8965L438.214 48.9006L439.497 47.3038L443.985 46.1063L445.542 44.8089L446.55 43.312L447.374 41.2162L447.924 41.4158L448.565 43.6114L449.298 45.3079L450.672 46.9047L451.68 48.4016L452.229 49.5992L451.954 50.2978L451.038 50.7967L450.58 51.8945L449.664 52.6929L449.481 54.1898V55.6868L449.756 57.084V57.084Z" fill="#7CC7D8" stroke="white" stroke-width="2" stroke-linecap="round" stroke-linejoin="round"/>
        <path d="M662.726 44.6093L663.55 47.7031L663.184 49.5992L662.634 49.7988H662.085L660.894 49.3996H660.436L659.52 50.0982L657.413 52.5931L657.047 53.5911L656.589 55.7866L656.131 56.585L655.49 57.1838L653.291 57.9822L651.642 58.3814L632.04 57.8824L631.032 58.082L630.208 59.2795L629.75 60.8763L628.834 62.3732L627.643 62.7724L624.987 62.3732L621.14 60.5769L620.315 60.3773L619.674 60.5769L615.277 63.1716L614.086 63.471H613.17L610.606 62.473L608.407 62.5728L603.186 61.2755L602.362 61.1757L601.812 61.4751L601.354 61.9741L599.797 65.8661L598.789 66.4649L592.56 68.0617L586.79 70.9558L584.958 72.1534L583.217 73.6503L578.729 79.6382L578.179 80.2369L576.164 81.8337L575.34 82.2329L574.607 82.4325L573.416 82.3327L572.408 82.0333L571.034 81.1351H569.111L557.569 84.2288L556.104 84.3286L549.875 83.7298L548.684 83.9294L547.951 84.4284L547.218 86.5242L545.844 87.6219L543.829 88.6199L542.73 89.4183L540.715 91.3144L539.616 91.7136L538.7 92.013L537.509 92.1128L537.051 92.512L536.868 93.1108V95.0069L536.41 96.6037L536.135 97.1027L535.402 97.7014L532.196 99.9968L530.639 100.795L530.364 101.294L529.265 102.691L524.96 105.785L523.769 106.184L523.219 106.084L523.494 103.19L523.402 102.492L523.036 101.394L522.303 100.496L521.845 100.596L520.471 101.294L514.426 102.891L513.235 102.991L512.594 102.791L509.204 100.995L508.014 101.294L507.006 102.093L504.624 102.991L503.708 103.19L491.068 102.592L487.77 101.394L486.488 101.793L486.121 102.192L485.022 103.19L482.366 104.188L480.167 101.194L479.343 100.795L478.61 100.695L477.511 101.793L476.412 102.292L464.412 104.388L463.496 104.987L465.053 109.378L468.9 116.164L469.542 117.761L469.633 119.058L469.175 119.457L468.626 119.557L467.984 119.357L466.152 118.559H465.511L459.099 119.258L457.45 120.156L454.244 124.946L452.321 128.04L451.222 128.14L450.58 126.343L450.122 125.844L448.199 125.744L433.543 128.239L432.627 127.94L431.253 127.241L427.955 126.643H425.94L424.749 127.142L424.474 128.339L423.009 138.518L423.1 139.816L423.284 141.213L425.39 141.812L426.123 142.211L426.673 143.009V143.908L425.665 144.706L424.841 145.504L423.833 147.101L423.1 148.498L422.826 149.696L422.734 151.193L423.1 153.189L423.009 154.187L422.642 155.185L420.536 157.68L419.894 158.777L419.62 159.576L419.528 160.474L419.711 162.57L419.436 163.468L418.887 164.266L417.971 165.065L417.055 165.564H416.414L415.406 165.065L414.307 164.067L413.482 163.867L412.933 164.067L410.643 165.863L409.91 166.661L409.544 167.46L409.36 168.458L408.902 171.452L408.536 172.15L407.986 172.649L407.254 172.35L406.796 171.352L406.612 169.855L407.07 167.16L406.979 165.663L406.429 164.965H405.971L403.956 165.663L402.582 165.763L401.3 165.164L400.292 164.067L399.376 162.17L398.185 160.873L397.819 160.274L397.086 158.079L396.262 156.582L392.872 159.576L391.315 160.274L389.941 160.174L380.048 161.272L378.674 156.183L377.85 154.486L376.659 153.787L375.926 153.588L374.186 153.189L373.453 153.089L372.446 153.388L370.522 154.486L370.064 154.885L368.873 156.482L368.507 156.881L367.774 157.28L366.492 157.48L365.576 157.38L357.973 154.087L356.874 153.887L355.683 153.987L353.21 154.586H352.019L349.362 153.388L347.622 153.089L345.24 153.787L344.691 153.189L344.141 150.794L343.775 149.696L342.95 148.598L342.218 147.899L340.752 146.901L339.744 146.502L338.828 146.203H337.454L336.905 145.903L335.714 144.506L334.706 144.107L331.042 143.409L326.737 141.612L325.638 141.313H324.722L324.172 141.512L323.531 140.714L322.982 139.117L323.806 137.321L324.081 136.622L323.898 135.824L323.256 135.325L320.234 134.327L319.684 133.828L319.409 133.229V131.732L320.142 128.04L320.417 127.142L320.966 126.443L321.882 126.044L324.63 126.144L325.73 125.944L326.646 125.046L327.562 123.748L328.203 123.15L330.584 121.852L332.508 121.254L334.065 121.054L335.622 120.555L336.813 120.355L338.37 120.655L339.378 121.054L340.569 121.353L341.851 121.154L345.057 119.657L346.523 119.258L348.446 119.158L351.561 119.657L352.202 119.956L354.492 121.353H355.866L357.606 120.854L362.644 118.459L363.835 117.761L366.217 114.268L366.4 112.272L366.858 111.174L368.232 109.078L370.43 106.783L370.797 106.084L371.072 105.086L370.98 103.689L370.797 102.791L369.698 101.095L368.415 100.795L366.034 101.095H365.209L363.835 100.596L363.011 99.7972L362.553 98.6994L362.003 96.6037L361.728 96.2045H361.362L360.721 97.1027L360.354 98.2004L360.171 99.6974L360.538 101.494L359.896 102.891L357.881 104.987L355.5 104.587L349.546 92.013L348.263 88.1209L347.622 84.0292L347.805 79.3388L348.813 75.0475L353.21 64.1696L355.408 58.8803L355.683 56.9842L355.408 54.6889L354.4 50.5972L354.217 48.5014L354.492 46.4057L355.133 44.6093L356.874 41.316L359.988 31.3363L360.996 29.4402L362.278 28.2426L366.217 25.7477L380.415 19.2609L381.789 18.8617L385.27 19.0613L388.384 17.2649L391.132 8.68237L393.605 6.58663L395.346 7.18541L398.277 10.3789L399.834 10.8779L412.841 9.18135L414.215 8.28318L414.49 6.58663L413.574 4.39109L411.284 0.997986L413.757 2.49494L417.971 6.68642L420.261 7.78419L423.009 8.48277L425.39 9.78014L429.696 13.6722L431.344 14.6702L434.825 15.0694L437.848 17.1651L441.237 18.2629L442.794 19.1611L443.894 20.7578L446 24.7497L447.191 26.2467L455.71 33.4321L458.55 34.6296L467.984 36.426L475.129 40.2183L477.511 42.5136L479.801 43.811L484.839 45.5075L487.22 47.0045L489.144 48.701L494.182 51.9943L496.38 52.5931L501.876 52.4933L520.563 55.1878L523.769 54.7887L525.418 54.9883L530.822 57.4832L532.929 57.3834L535.31 56.1858L537.692 54.3895L539.707 52.0941L540.532 50.4974L543.28 42.6134L544.196 41.7152L545.478 41.316L550.608 40.9169L553.814 41.4158L560.317 43.5116L562.149 43.6114L567.645 41.6154L569.752 41.5156L575.798 43.2122H583.309L590.454 45.6073L591.37 45.4077L593.018 44.6093L594.026 44.5095L594.85 45.1083L595.766 47.1043L596.591 47.6033L598.056 47.1043L600.53 44.4098L602.087 43.7112L604.285 44.0106L608.59 46.0065L610.697 46.4057L612.438 46.0065L615.644 44.4098L619.308 44.5095L620.956 44.1104L624.071 42.2142L624.437 41.815L624.712 40.7173L625.353 40.6175L626.819 40.9169H627.368L628.01 40.5177L629.75 38.2223L631.307 36.925L632.956 36.6256H636.62L639.918 35.1286L641.566 34.8292L643.215 35.6276L652.558 37.3242L655.398 38.5217L656.314 39.4199L658.696 43.1124L659.978 44.2102L661.26 44.5095L662.726 44.6093V44.6093ZM449.756 57.084L449.481 55.6868V54.1899L449.664 52.6929L450.58 51.8945L451.038 50.7968L451.954 50.2978L452.229 49.5992L451.68 48.4016L450.672 46.9047L449.298 45.3079L448.565 43.6114L447.924 41.4158L447.374 41.2162L446.55 43.312L445.542 44.8089L443.985 46.1063L439.497 47.3039L438.214 48.9006L439.13 50.8966L442.52 53.9903L443.802 54.7887L443.894 56.3854L443.619 57.4832L443.71 59.0799L444.168 60.0779L444.718 60.7765H445.268L445.726 60.0779L446.367 58.4812L447.466 57.1838L448.748 57.4832H449.481L449.756 57.084V57.084Z" fill="#7CC7D8" stroke="white" stroke-width="2" stroke-linecap="round" stroke-linejoin="round"/>
        <path d="M747.181 256.179L745.441 254.882L744.525 253.585L744.067 252.587L743.426 250.69L742.784 248.894L742.235 247.996L741.594 247.397L740.036 246.699H738.662L737.746 247.198L735.914 248.395L734.724 249.493L730.968 251.788L728.953 252.387L725.014 252.886H718.877L708.251 249.792L700.465 249.892L699.366 249.693L698.633 249.293L698.358 248.794L698.084 247.597V246.299L698.45 244.902L699.549 242.208L699.641 240.811L699.366 240.112L698.633 239.413L697.351 239.114L694.603 239.014L693.687 239.214L690.847 240.711L677.199 244.902L674.542 245.301L674.176 244.902V244.403L674.451 243.804L675.642 242.607L676.374 241.609L676.649 240.91L677.565 237.018L677.748 235.621L678.023 234.324L679.397 232.128L679.672 231.13L679.58 230.631L678.481 229.533L675.733 227.637L671.52 225.542L670.329 224.244L670.237 222.947L669.871 220.552L668.588 216.759L668.863 216.26L669.779 216.759L670.512 216.859L671.062 216.56L671.703 215.961L673.168 211.77L673.81 208.776L674.268 203.686L673.626 201.391H672.802L671.52 202.389L669.871 203.087L667.123 203.886L666.482 204.285L664.833 205.582L663.642 206.181L662.818 206.381L647.887 206.78L643.215 205.482L637.353 204.884H636.345L635.338 205.283L632.773 206.58L631.032 207.079L629.109 207.279L624.987 206.68L624.346 206.381L623.796 206.081L623.338 204.983L622.422 203.985L621.414 203.486H620.773L619.216 204.185L617.842 204.584L617.292 204.385L617.018 203.886L617.476 202.688L618.85 200.492L619.766 198.596L620.315 196.401L620.498 194.305L620.956 192.808L621.231 192.11L622.514 189.814L622.788 189.215L623.155 187.02V185.723L622.605 184.725L620.773 183.427L618.575 182.13L617.292 181.731L616.376 181.431L615.827 181.631L614.453 182.429L612.804 182.828L601.72 182.23L601.354 181.83L600.988 180.533L599.614 178.737L600.896 176.142L601.72 175.344L602.728 174.745L603.369 174.545L605.201 174.346L610.422 174.745L612.987 174.445L613.72 173.946L614.086 173.348L614.361 170.653L615.094 167.659L616.743 163.667L616.468 163.268H615.552L613.628 164.366L612.438 164.466L611.155 164.067L608.499 162.969L601.72 158.977L600.438 158.677L594.301 158.478L593.66 158.378L591.186 157.28L589.354 155.983L586.148 154.985L584.866 154.885L582.851 155.684L581.66 155.783L580.744 155.384L579.553 154.686L577.538 152.989L576.439 152.29L575.614 151.991L575.156 152.091L573.141 153.089L566.821 155.085L565.355 155.185L564.073 154.785L563.615 154.187L563.34 153.588L563.706 152.29L564.439 151.293L566.271 149.995L567.92 148.398L568.744 147.5L569.294 146.303L569.752 144.107V143.209L569.569 142.211L568.744 140.714L567.462 139.417L564.439 137.221L563.798 136.423L563.523 135.724L563.706 134.127L563.615 133.229L563.248 132.63L561.874 132.231L561.233 131.932L560.867 131.433L560.775 130.135L561.233 127.142L561.416 126.443L562.79 122.152L562.882 120.655L562.516 119.457L562.058 118.26L561.05 117.062L559.584 115.964L559.126 114.767V113.469L558.852 111.673L558.485 110.276L557.936 109.577L557.203 109.178L555.096 108.579H553.905L553.539 109.078L552.989 110.276L552.348 111.374L551.615 112.072L550.15 112.871L544.104 113.27L543.371 113.17L542.638 112.272L541.356 109.378L540.348 108.28L537.967 107.082L537.417 106.683L536.226 106.184L534.12 105.985L533.478 105.086L532.379 101.095L532.196 99.9968L535.402 97.7014L536.135 97.1026L536.41 96.6037L536.868 95.0069V93.1108L537.051 92.512L537.509 92.1128L538.7 92.013L539.616 91.7136L540.715 91.3144L542.73 89.4183L543.829 88.6199L545.844 87.6219L547.218 86.5241L547.951 84.4284L548.684 83.9294L549.875 83.7298L556.104 84.3286L557.569 84.2288L569.111 81.1351H571.034L572.408 82.0333L573.416 82.3327L574.607 82.4325L575.34 82.2329L576.164 81.8337L578.179 80.2369L578.729 79.6381L583.217 73.6503L584.958 72.1534L586.79 70.9558L592.56 68.0617L598.789 66.4649L599.797 65.8661L601.354 61.974L601.812 61.475L602.362 61.1757L603.186 61.2755L608.407 62.5728L610.606 62.473L613.17 63.471H614.086L615.277 63.1716L619.674 60.5769L620.315 60.3773L621.14 60.5769L624.987 62.3732L627.643 62.7724L628.834 62.3732L629.75 60.8763L630.208 59.2795L631.032 58.0819L632.04 57.8824L651.642 58.3813L653.291 57.9821L655.49 57.1838L656.131 56.585L656.589 55.7866L657.047 53.5911L657.413 52.5931L659.52 50.0982L660.436 49.3996H660.894L662.085 49.7988H662.634L663.184 49.5992L663.55 47.703L662.726 44.6093H664.192L672.344 46.1063L675 45.2081L678.573 43.312L679.855 43.0126L681.046 43.1124L683.428 44.0105H686.725L688.282 44.9087L689.748 46.2061L691.397 47.3039H692.771L697.076 45.0085L698.816 44.6093L704.312 44.8089L709.9 46.3059L710.358 47.1043L710.724 47.9026L711.274 48.6012L712.282 49.2998L714.388 48.3018L715.762 47.3039L716.495 46.9047L718.419 46.6053L720.251 46.9047L722.174 47.6032L726.846 50.697L730.51 51.3955L739.395 50.4974L743.242 50.697L746.998 50.0982L748.647 50.3976L752.036 51.7947L753.776 51.8945L755.242 51.2957L758.173 49.2L759.914 48.5014L763.578 48.202L769.074 48.8008L777.226 51.8945L780.615 54.0901L783.546 56.7846L784.92 57.583L794.996 58.6807L801.592 61.6746L807.088 61.974L810.294 63.3712L813.408 63.5708L819.912 59.9781L823.118 59.2795L825.224 59.8783L825.866 61.1757L825.408 65.8661L825.499 68.7602L825.957 71.2552L826.782 73.5505L827.972 75.8458L830.904 79.0393L837.499 82.4325L840.155 85.5262L843.911 95.4061L846.109 98.6994L850.323 100.695L858.292 101.194L864.979 99.7972L868.551 99.897L886.963 104.288L890.444 106.883L891.543 108.28L894.749 113.469L900.153 118.858L902.901 122.751L905.1 126.942L907.573 130.634L911.145 133.03L911.695 134.826L911.97 138.818L912.336 140.814L913.252 142.61L914.26 144.107L914.992 145.804L915.084 148.199L912.886 151.991L908.855 153.588L887.97 153.288L883.757 154.486L880.734 155.883L879.36 157.081L878.261 158.877L877.528 160.973L876.52 165.464L875.788 167.659L872.856 170.753L869.101 171.352L865.254 171.252L861.498 172.25L856.826 175.843L851.422 178.038L844.918 183.028L843.27 183.727H841.346L836.033 181.93L834.293 182.429L832.827 183.527L828.888 187.519L827.148 188.916L825.316 189.814L821.469 190.812L818.263 192.209L808.92 199.594L803.882 200.592L802.324 201.49L794.905 207.279L783.73 212.069L782.539 212.768L781.44 213.865L780.798 215.163L780.157 218.157L779.333 219.354L776.402 220.851L770.264 222.248L762.57 228.735L759.272 230.432L757.807 231.529L756.433 233.426L756.158 235.521L757.532 240.212L757.807 242.407L756.982 244.403L755.425 245.8L752.128 247.996L750.845 249.393L748.738 252.786L747.181 256.179V256.179Z" fill="#7CC7D8" stroke="white" stroke-width="2" stroke-linecap="round" stroke-linejoin="round"/>
        <path d="M747.181 256.179L744.983 260.87L743.792 262.766L742.601 264.263L734.174 272.147L732.708 272.746L731.06 272.546L727.762 270.949L716.953 269.253L714.022 269.353L711.182 270.351L700.282 276.738L699 277.237L697.442 277.436L693.229 277.137L686.817 279.133L684.527 279.033L682.054 277.636L677.382 275.44L672.71 274.442L670.054 274.542L665.291 276.239L654.94 275.44L652.467 274.542L648.07 272.047L645.78 271.548L636.895 273.843L633.597 275.34L631.49 277.636L630.3 279.532L627.185 282.027L625.811 283.524L624.987 285.819L625.353 288.114L625.903 290.41L626.178 292.805L625.445 295.2L624.162 296.697L620.865 298.693L618.117 301.387L615.918 304.98L614.544 309.271L613.995 321.347L613.72 323.343L612.804 325.039L608.407 328.732L606.3 332.424L603.644 340.807L601.72 344.2L599.43 346.596L592.286 351.785L589.629 354.679L588.255 355.178L587.064 353.681L585.782 346.396L584.958 344.4L582.484 343.602L580.103 346.496L577.63 350.388L574.79 352.284L573.233 351.885L570.118 349.989L568.561 349.39L566.546 349.589L559.126 353.581L558.027 355.178L557.111 357.274L555.737 359.27L554.088 360.467L552.348 360.867L550.516 360.767L545.203 359.27L543.371 359.17L541.631 359.37L537.784 361.166L535.86 361.366L534.486 359.669L533.753 357.573L532.471 352.384L532.288 350.088L532.929 347.793L534.028 346.196L534.852 344.6L534.669 342.504L533.845 341.206L531.555 338.811L530.639 337.314L529.998 335.019L529.54 328.333L528.074 323.243L525.784 320.748H522.761L519.28 323.043L501.235 338.911L500.411 339.41L499.403 339.71L498.396 340.109L497.938 341.007L497.663 342.204L497.022 343.202L495.464 343.602L493.907 342.703L492.35 341.606L490.793 340.907L488.778 341.206L484.747 343.302L482.64 343.602L479.618 342.803L476.595 341.406L469.358 336.017L467.526 335.019L465.786 335.219L465.511 335.618L463.313 334.62L456.901 334.72L455.435 334.52L454.428 334.221L453.97 333.821L452.687 331.925L446.55 330.828L445.359 330.129L444.718 329.43L445.542 326.736L445.634 326.037V324.74L444.901 323.143L443.802 321.946L442.886 321.347L431.436 316.756L429.696 315.559L426.306 312.465L424.932 310.669L424.291 309.671L423.65 308.174L423.009 307.176L417.146 300.988L415.772 300.09L414.948 299.192L414.49 298.593L414.307 296.497L414.124 295.599L413.666 294.302L413.208 293.503L412.658 292.905L410.551 291.408L401.483 282.626L400.017 280.23L407.345 270.55L408.444 268.654L408.536 267.656L402.216 261.968L402.032 261.069L402.216 260.271L402.857 258.574L403.406 257.876L404.048 257.477L405.33 257.576H406.154L406.887 257.177L407.803 255.98L408.994 255.082L410.368 254.782L411.009 254.383L413.208 252.786L413.574 252.686L417.788 252.487L424.383 250.89L425.574 251.09L427.039 251.788L427.955 252.088L429.146 251.788L429.696 251.189L428.688 249.892L426.49 246.399L426.032 245.501L424.932 242.507V241.509L425.299 241.01L426.215 240.511L432.81 237.916L434.917 236.519L436.291 235.92L437.482 235.521L442.611 234.623L443.985 234.124L446.916 232.527L449.39 231.629L450.122 231.03L450.764 230.332L453.695 225.941L454.153 224.843L455.16 221.45L456.168 216.859L456.901 214.364L457.176 213.067L457.359 209.075L457.542 207.877L458.641 205.183L458.916 204.385L458.824 203.187L458.092 202.389L455.71 200.692H454.061L453.42 200.892L452.687 201.59L452.412 202.688L451.405 203.586L441.054 208.476L439.68 208.676L438.306 208.077L437.298 207.977L435.65 208.077L434.825 208.476L433.085 210.073L431.344 211.071L430.245 211.171L429.421 210.871L428.322 210.073L423.833 209.474L419.62 209.674L417.696 209.973L416.414 210.472L415.589 211.071H414.49L414.032 210.772L412.75 209.474L411.834 208.776L410.734 208.277L408.811 207.977L407.437 208.077L404.78 208.975L403.864 209.075L402.857 208.875L401.116 207.877L399.284 205.981L398.918 205.682L397.269 205.183L396.72 204.784L395.895 203.586L395.346 202.888L394.521 202.488L393.514 202.089L392.048 202.389L391.59 201.49L390.399 198.097L389.575 196.6H389.208L389.025 195.902L389.483 195.503L391.59 193.407L392.048 193.008L393.147 192.808L396.536 193.307L398.094 193.806L398.826 194.105L399.559 194.704L400.292 195.503L400.75 196.401L401.116 197.499L401.208 198.397V199.994L401.025 201.79L401.574 202.788L402.582 203.586L405.33 204.584L406.429 204.684L406.979 204.285V203.387L405.971 193.806L405.513 191.211L405.147 190.213L404.78 189.615L404.231 189.315L401.574 188.617L398.002 188.417L395.071 187.718L394.613 187.219V186.621L395.071 180.034L394.979 178.138L394.796 176.342L394.155 174.745L393.422 174.046L391.498 173.348L390.582 172.849L389.941 172.749L387.743 174.046L387.193 174.146L386.735 173.946L385.178 172.45L382.43 171.152L382.155 171.352L382.247 172.549L381.88 174.046L381.422 174.745L380.781 175.344L380.048 175.543L379.316 175.443L378.4 174.944L377.392 174.046L375.56 171.452L374.919 170.853L373.728 169.855L373.545 168.857L374.186 168.458H375.285L376.293 168.058L376.751 167.559L377.575 165.763L379.499 162.769L380.048 161.272L389.941 160.174L391.315 160.274L392.872 159.576L396.262 156.582L397.086 158.079L397.819 160.274L398.185 160.873L399.376 162.17L400.292 164.067L401.3 165.164L402.582 165.763L403.956 165.663L405.971 164.965H406.429L406.979 165.663L407.07 167.16L406.612 169.855L406.796 171.352L407.254 172.35L407.986 172.649L408.536 172.15L408.902 171.452L409.36 168.458L409.544 167.46L409.91 166.661L410.643 165.863L412.933 164.067L413.482 163.867L414.307 164.067L415.406 165.065L416.414 165.563H417.055L417.971 165.065L418.887 164.266L419.436 163.468L419.711 162.57L419.528 160.474L419.62 159.576L419.894 158.777L420.536 157.68L422.642 155.185L423.009 154.187L423.1 153.189L422.734 151.193L422.826 149.696L423.1 148.498L423.833 147.101L424.841 145.504L425.665 144.706L426.673 143.908V143.009L426.123 142.211L425.39 141.812L423.284 141.213L423.1 139.816L423.009 138.518L424.474 128.339L424.749 127.142L425.94 126.643H427.955L431.253 127.241L432.627 127.94L433.543 128.239L448.199 125.744L450.122 125.844L450.58 126.343L451.222 128.14L452.321 128.04L454.244 124.946L457.45 120.156L459.099 119.258L465.511 118.559H466.152L467.984 119.357L468.626 119.557L469.175 119.457L469.633 119.058L469.542 117.761L468.9 116.164L465.053 109.378L463.496 104.987L464.412 104.388L476.412 102.292L477.511 101.793L478.61 100.695L479.343 100.795L480.167 101.194L482.366 104.188L485.022 103.19L486.121 102.192L486.488 101.793L487.77 101.394L491.068 102.591L503.708 103.19L504.624 102.991L507.006 102.093L508.014 101.294L509.204 100.995L512.594 102.791L513.235 102.991L514.426 102.891L520.471 101.294L521.845 100.596L522.303 100.496L523.036 101.394L523.402 102.492L523.494 103.19L523.219 106.084L523.769 106.184L524.96 105.785L529.265 102.691L530.364 101.294L530.639 100.795L532.196 99.9968L532.379 101.095L533.478 105.086L534.12 105.985L536.226 106.184L537.417 106.683L537.967 107.082L540.348 108.28L541.356 109.378L542.638 112.272L543.371 113.17L544.104 113.27L550.15 112.871L551.615 112.072L552.348 111.374L552.989 110.276L553.539 109.078L553.905 108.579H555.096L557.203 109.178L557.936 109.577L558.485 110.276L558.852 111.673L559.126 113.469V114.767L559.584 115.964L561.05 117.062L562.058 118.26L562.516 119.457L562.882 120.655L562.79 122.152L561.416 126.443L561.233 127.142L560.775 130.136L560.867 131.433L561.233 131.932L561.874 132.231L563.248 132.63L563.615 133.229L563.706 134.127L563.523 135.724L563.798 136.423L564.439 137.221L567.462 139.417L568.744 140.714L569.569 142.211L569.752 143.209V144.107L569.294 146.303L568.744 147.5L567.92 148.398L566.271 149.995L564.439 151.293L563.706 152.29L563.34 153.588L563.615 154.187L564.073 154.785L565.355 155.185L566.821 155.085L573.141 153.089L575.156 152.091L575.614 151.991L576.439 152.29L577.538 152.989L579.553 154.686L580.744 155.384L581.66 155.783L582.851 155.684L584.866 154.885L586.148 154.985L589.354 155.983L591.186 157.28L593.66 158.378L594.301 158.478L600.438 158.677L601.72 158.977L608.499 162.969L611.155 164.067L612.438 164.466L613.628 164.366L615.552 163.268H616.468L616.743 163.667L615.094 167.659L614.361 170.653L614.086 173.348L613.72 173.946L612.987 174.445L610.422 174.745L605.201 174.346L603.369 174.545L602.728 174.745L601.72 175.344L600.896 176.142L599.614 178.737L600.988 180.533L601.354 181.83L601.72 182.23L612.804 182.828L614.453 182.429L615.827 181.631L616.376 181.431L617.292 181.731L618.575 182.13L620.773 183.427L622.605 184.725L623.155 185.723V187.02L622.788 189.215L622.514 189.814L621.231 192.11L620.956 192.808L620.498 194.305L620.315 196.401L619.766 198.596L618.85 200.492L617.476 202.688L617.018 203.886L617.292 204.385L617.842 204.584L619.216 204.185L620.773 203.486H621.414L622.422 203.985L623.338 204.983L623.796 206.081L624.346 206.381L624.987 206.68L629.109 207.279L631.032 207.079L632.773 206.58L635.338 205.283L636.345 204.884H637.353L643.215 205.482L647.887 206.78L662.818 206.381L663.642 206.181L664.833 205.582L666.482 204.285L667.123 203.886L669.871 203.087L671.52 202.389L672.802 201.391H673.626L674.268 203.686L673.81 208.776L673.168 211.77L671.703 215.961L671.062 216.56L670.512 216.859L669.779 216.759L668.863 216.26L668.588 216.759L669.871 220.552L670.237 222.947L670.329 224.244L671.52 225.542L675.733 227.637L678.481 229.533L679.58 230.631L679.672 231.13L679.397 232.128L678.023 234.324L677.748 235.621L677.565 237.018L676.649 240.91L676.374 241.609L675.642 242.607L674.451 243.804L674.176 244.403V244.902L674.542 245.301L677.199 244.902L690.847 240.711L693.687 239.214L694.603 239.014L697.351 239.114L698.633 239.413L699.366 240.112L699.641 240.811L699.549 242.208L698.45 244.902L698.084 246.299V247.597L698.358 248.794L698.633 249.293L699.366 249.692L700.465 249.892L708.251 249.792L718.877 252.886H725.014L728.953 252.387L730.968 251.788L734.724 249.493L735.914 248.395L737.746 247.198L738.662 246.699H740.036L741.594 247.397L742.235 247.996L742.784 248.894L743.426 250.69L744.067 252.587L744.525 253.585L745.441 254.882L747.181 256.179V256.179Z" fill="#7CC7D8" stroke="white" stroke-width="2" stroke-linecap="round" stroke-linejoin="round"/>
        <path d="M231.84 364.858L234.862 364.659L238.893 362.962L246.221 360.767L247.503 360.966L248.328 361.865L248.969 363.661L248.877 364.858L248.328 367.054V368.252L248.511 369.249L249.06 370.547L248.877 371.645L248.328 372.443L247.503 372.942L247.045 373.441L247.32 374.239L248.053 375.038L251.534 376.634L252.724 377.632L253.274 378.83L253.366 380.726L252.816 382.024L251.076 383.72L250.709 384.219L250.892 384.818L253.549 386.215L254.373 387.013L254.831 387.912L254.923 389.109L254.648 389.908L254.282 390.706L254.19 391.604L254.465 392.802L255.198 394.598L255.381 395.895L255.106 396.993L254.648 397.991L254.282 399.089L254.098 400.087L254.19 400.885L254.465 401.584L255.381 402.083L257.488 402.582L258.678 403.081L260.052 404.079L260.968 404.877L261.793 406.274L263.075 409.168L264.816 412.162L266.19 412.861H267.014L268.48 411.663L269.304 411.264L270.128 411.464L270.678 412.162L271.136 414.657L271.594 415.855L272.693 416.953L274.525 419.348L276.357 423.14L275.258 424.637L274.892 425.934L274.525 426.533L273.243 427.631L270.403 429.228L266.281 430.725L262.342 432.72L260.144 434.816L259.136 435.515L257.946 436.114L255.289 436.912L253.457 437.81L250.526 438.409L245.305 437.411L242.74 437.71L241.366 438.11L239.626 438.908L238.71 439.107L237.885 439.008L236.236 437.81L235.595 437.511L234.404 437.71L233.122 437.611L231.382 437.211L230.282 436.712L228.45 435.215L227.351 434.317L226.069 433.718L213.886 430.924L212.604 430.425L211.413 429.727L210.772 429.028L210.314 427.431L209.672 426.932L208.482 426.633H207.016L206.008 427.032L205.276 427.631L204.451 429.028L203.444 430.126L201.978 431.124L195.566 432.82L193.551 434.816L191.81 438.609L191.536 439.407L190.894 442.7L190.162 444.696L188.788 443.399L185.948 441.503L184.482 441.702L181.643 443.099L179.261 443.598L178.437 443.898L177.887 444.397L176.696 445.694L176.147 446.293L173.216 447.989L172.116 448.888L169.46 452.281L168.544 452.979H167.536L162.773 451.981L159.292 452.181L155.812 453.179L153.155 455.175L151.415 458.468L150.224 462.26L148.667 465.454L146.01 466.951L143.72 466.252L141.705 464.855L139.873 463.957L138.316 464.755L137.308 466.053L136.667 466.252L135.934 466.153H134.652L133.644 466.552L131.171 468.049L128.881 468.448L126.316 467.949L124.118 466.552L122.927 464.157V462.66L123.294 461.163L123.477 459.466L123.019 457.869L122.194 457.071L120.271 456.173L119.355 455.374L117.706 449.686L116.607 447.191L114.592 445.495L113.126 445.295L110.103 445.894L108.638 445.794L107.63 445.095L105.706 443.299L104.607 442.8L103.142 443L100.485 444.097L99.1112 444.397L98.2868 444.696L97.3708 445.993L96.9128 446.393L96.0884 446.293L94.348 445.794L93.432 445.594L92.4244 446.093L85.0048 451.981L83.5392 452.381L82.0736 451.782L81.982 450.185L82.898 445.993L82.8064 443.998L82.44 441.802L81.7072 440.604L80.4248 441.702L78.0432 447.191L77.402 448.289L76.028 448.788L74.654 448.289L71.906 446.492L70.1656 445.993H68.3336L66.6848 446.592L65.2192 447.989L63.9368 449.985L63.2956 450.584L60.7308 449.387L57.4332 448.987L51.0212 450.385L47.7236 449.287L44.3344 447.191L41.0368 445.993L37.6476 445.495L30.4112 445.993L28.9456 446.692L26.1976 449.287L24.8236 450.285L23.2664 450.884L21.7092 451.083H19.8772L16.3048 451.682L14.5644 451.083L12.5492 448.788L12.0912 448.488L11.3584 448.788L10.8088 450.484L10.3508 451.383L7.05319 452.78L5.86239 449.985L6.32039 436.014L5.95399 433.818L5.40439 431.822L4.21359 430.226L2.74799 428.928L1.46559 427.331L0.915985 425.136L1.19079 420.545L2.10679 416.054L5.86239 403.38L7.51119 399.488L7.87759 398.39V397.592L8.15239 397.392L9.34319 397.592L11.8164 400.586L15.7552 408.071L23.7244 404.977L23.6328 403.38L21.7092 399.588L21.8008 398.789L21.526 397.293L21.2512 396.594L20.5184 392.802L21.068 389.808L22.442 387.113L24.0908 384.419L24.3656 383.62L24.732 381.525L25.0984 381.026L25.7396 381.325L26.6556 383.121L27.2052 383.62L28.4876 383.82L29.8616 383.62L62.4712 370.846L65.4024 371.146L77.2188 379.628L79.0508 380.227L83.1728 380.028L85.0048 380.127L86.8368 381.125L88.0276 382.622L89.1268 384.219L90.4092 385.816L91.8748 386.714L94.806 387.113L98.012 388.61L104.607 389.708L106.622 390.407L108.546 391.903L109.462 393.999L108.18 396.594L106.897 397.592L105.523 398.39L104.241 399.388L103.142 400.985L102.409 403.181L102.134 405.276L102.775 406.873L104.607 407.572L105.34 406.474L105.981 403.879L106.531 402.881L107.538 402.282L111.019 402.183L112.851 401.484L114.5 400.286L115.874 398.69L117.065 396.594L117.706 392.502L117.614 388.81L117.981 385.816L120.179 383.52L125.492 381.525L126.683 380.826L129.889 377.832L130.713 376.734H131.171L131.904 377.333L133.37 376.535L134.011 375.936L135.11 375.537L139.507 376.634L142.072 375.637L144.82 373.441L146.194 370.547L144.545 367.653L147.476 364.26L152.331 363.361L161.949 364.958L164.605 364.659L165.704 362.663L166.437 359.968L167.72 357.873L168.91 357.473L169.735 358.172L170.559 359.37L171.384 360.567L172.483 361.066L173.857 361.166L176.513 360.867L178.162 361.066L180.727 363.661L184.482 364.958L185.307 366.355L185.948 368.152L187.414 369.748L189.246 370.946L191.078 371.744L195.016 372.543L197.032 372.343L197.764 371.046L197.948 368.95L198.497 366.655L199.963 365.258L201.428 366.555L202.619 369.249L203.169 371.645V376.535L203.718 378.331L205.367 379.129L206.466 378.83L210.863 375.936L212.237 374.539L213.062 372.942L214.619 369.15L217.184 366.355L220.206 366.156L223.504 367.054L226.802 367.353L228.176 366.954L229.824 367.553L231.198 367.753L232.298 367.453L232.847 366.156L232.389 365.258L231.84 364.858V364.858ZM161.949 390.806L161.308 390.307L156.728 388.211L154.438 386.514L153.064 384.618L151.873 381.325L150.499 378.431L148.575 377.233L146.01 378.73L144.545 382.423L144.087 384.518L143.995 386.514L144.453 388.411L146.468 393.301L147.476 394.798L148.575 395.396L150.774 395.895L151.69 396.794L152.056 400.187L148.575 406.274L148.667 409.268L149.674 409.867L150.865 409.069L152.056 407.871L152.972 407.172L154.529 407.272L154.896 408.27L155.17 409.568L156.086 410.566L157.369 410.665L161.216 409.468H164.056L165.155 408.969L166.071 407.572L166.254 403.879L162.59 399.588L162.407 396.494L163.689 395.097L167.536 392.203L168.086 390.307L167.536 389.209L166.437 389.009L164.33 389.608L162.956 390.706L161.949 390.806V390.806ZM210.68 407.272L211.504 405.775L213.336 398.29L212.97 397.093L210.955 397.791L207.932 400.286L206.466 400.985L204.36 401.185L203.077 402.881L203.902 404.578L205.642 405.975L207.291 406.873L209.398 407.572L210.68 407.272V407.272ZM116.424 413.46L106.348 409.767H105.157L105.065 411.563L105.615 413.46L106.714 415.256L109.554 417.352L110.378 418.549L112.76 422.94L113.218 423.34L117.523 419.547L119.904 418.25L122.561 417.651L123.477 416.853L123.568 414.657L122.927 412.561L121.92 412.262L119.355 413.559L116.424 413.46V413.46Z" fill="#7CC7D8" stroke="white" stroke-width="2" stroke-linecap="round" stroke-linejoin="round"/>
        <path d="M322.982 139.117L323.531 140.714L324.172 141.512L324.722 141.313H325.638L326.737 141.612L331.042 143.409L334.706 144.107L335.714 144.506L336.905 145.903L337.454 146.203H338.828L339.744 146.502L340.752 146.901L342.218 147.899L342.95 148.598L343.775 149.696L344.141 150.794L344.691 153.189L345.24 153.787L347.622 153.089L349.362 153.388L352.019 154.586H353.21L355.683 153.987L356.874 153.887L357.973 154.087L365.576 157.38L366.492 157.48L367.774 157.28L368.507 156.881L368.873 156.482L370.064 154.885L370.522 154.486L372.446 153.388L373.453 153.089L374.186 153.189L375.926 153.588L376.659 153.787L377.85 154.486L378.674 156.183L380.048 161.272L379.499 162.769L377.575 165.763L376.751 167.559L376.293 168.058L375.285 168.458H374.186L373.545 168.857L373.728 169.855L374.919 170.853L375.56 171.452L377.392 174.046L378.4 174.944L379.316 175.443L380.048 175.543L380.781 175.344L381.422 174.745L381.88 174.046L382.247 172.549L382.155 171.352L382.43 171.152L385.178 172.45L386.735 173.946L387.193 174.146L387.743 174.046L389.941 172.749L390.582 172.849L391.498 173.348L393.422 174.046L394.155 174.745L394.796 176.342L394.979 178.138L395.071 180.034L394.613 186.621V187.219L395.071 187.718L398.002 188.417L401.574 188.617L404.231 189.315L404.78 189.615L405.147 190.213L405.513 191.211L405.971 193.806L406.979 203.387V204.285L406.429 204.684L405.33 204.584L402.582 203.586L401.574 202.788L401.025 201.79L401.208 199.994V198.397L401.116 197.499L400.75 196.401L400.292 195.503L399.559 194.704L398.826 194.105L398.094 193.806L396.536 193.307L393.147 192.808L392.048 193.008L391.59 193.407L389.483 195.503L389.025 195.902L389.208 196.6H389.575L390.399 198.097L391.59 201.49L392.048 202.389L393.514 202.089L394.521 202.488L395.346 202.888L395.895 203.586L396.72 204.784L397.269 205.183L398.918 205.682L399.284 205.981L401.116 207.878L402.857 208.875L403.864 209.075L404.78 208.975L407.437 208.077L408.811 207.977L410.734 208.277L411.834 208.776L412.75 209.474L414.032 210.772L414.49 211.071H415.589L416.414 210.472L417.696 209.973L419.62 209.674L423.833 209.474L428.322 210.073L429.421 210.871L430.245 211.171L431.344 211.071L433.085 210.073L434.825 208.476L435.65 208.077L437.298 207.977L438.306 208.077L439.68 208.676L441.054 208.476L451.405 203.586L452.412 202.688L452.687 201.59L453.42 200.892L454.061 200.692H455.71L458.092 202.389L458.824 203.187L458.916 204.385L458.641 205.183L457.542 207.878L457.359 209.075L457.176 213.067L456.901 214.364L456.168 216.859L455.16 221.45L454.153 224.843L453.695 225.941L450.764 230.332L450.122 231.03L449.39 231.629L446.916 232.527L443.985 234.124L442.611 234.623L437.482 235.521L436.291 235.92L434.917 236.519L432.81 237.916L426.215 240.511L425.299 241.01L424.932 241.509V242.507L426.032 245.501L426.49 246.399L428.688 249.892L429.696 251.189L429.146 251.788L427.955 252.088L427.039 251.788L425.574 251.09L424.383 250.89L417.788 252.487L413.574 252.686L413.208 252.786L411.009 254.383L410.368 254.782L408.994 255.082L407.803 255.98L406.887 257.177L406.154 257.576H405.33L404.048 257.477L403.406 257.876L402.857 258.574L402.216 260.271L402.032 261.069L402.216 261.968L408.536 267.656L408.444 268.654L407.345 270.55L400.017 280.23L390.491 274.841L390.124 274.243L389.758 273.344L389.575 271.548L389.666 269.951L389.575 268.854L389.208 267.955L387.56 266.558L387.01 265.86L386.827 264.762L387.102 263.065L387.01 262.467L386.644 262.067L385.728 261.668L384.445 261.868L383.071 263.664L378.674 271.648L378.125 272.247L375.01 274.542L374.003 275.64L373.27 276.638L372.995 277.636L372.904 278.534L372.995 281.029L372.904 282.127L372.079 282.526L370.98 282.226L369.331 280.729L368.324 280.23L366.858 280.031L366.308 279.731L366.034 279.232L365.759 277.236L365.118 276.438L363.011 276.239L362.553 275.64L363.011 274.442L364.018 273.145L371.072 265.86L371.53 265.061V263.864L371.163 262.966L369.148 260.171H368.69L366.217 260.67L365.301 261.269L365.026 262.267L365.484 264.063L365.576 265.061L365.301 265.56L364.843 265.86L363.652 266.259L362.736 266.359L355.683 265.66L352.935 265.76L352.019 265.46L351.194 266.458L349.637 269.253L349.088 270.051L348.08 270.75L347.439 271.448L346.889 272.546L346.156 274.243L345.424 274.542L344.233 274.742L343.775 274.243L343.225 273.145L342.401 272.047L342.034 271.748L341.027 272.047L336.722 275.54L335.989 276.438L335.348 277.336L334.981 278.733L335.073 279.731L335.256 281.428L334.89 283.524V284.123L335.531 286.218V287.615L335.256 288.314L334.523 289.212L333.424 290.21L328.569 292.605L326.279 295.2L324.814 296.597L322.982 296.098L318.127 296.497L316.386 295.2L315.287 293.404L313.913 292.406L307.776 295.499L303.929 298.493L302.921 298.693L303.104 296.697L302.738 293.104L299.532 292.206L288.906 293.304L285.334 292.805L282.128 291.208L279.563 288.114L275.991 282.127L274.342 281.428L272.327 281.228L270.861 280.43V277.636L270.953 276.338L270.312 275.44L265.915 275.041L263.533 274.243L261.793 273.045L259.411 268.953L258.312 268.155L256.846 269.452L256.388 270.351L255.381 273.544L254.831 274.043L251.717 274.542L244.48 276.937L245.58 274.143L246.129 271.947V269.652L245.396 263.365L245.213 259.872L244.847 256.678L243.931 254.383L241.824 252.986L239.809 253.285L237.794 254.682L236.053 256.479L233.58 258.075L232.114 257.277L230.832 255.281L228.908 253.485L222.313 254.682L220.115 253.585L219.657 248.495L219.932 243.305L219.382 239.413L218.1 235.821L210.314 223.047L209.672 222.448L208.94 222.148L208.39 222.647V225.142L207.749 225.841L206.924 225.442L206.466 223.446L205.55 223.047L205.184 223.745L204.909 225.043L204.36 226.041L203.627 225.741L203.535 224.244L205.001 217.458V214.963L204.634 212.668L203.535 210.971L201.703 210.672L199.871 211.47L198.864 212.867L197.215 217.458L198.131 219.554L200.421 222.847L200.696 225.043L200.329 227.438L199.23 231.43L196.39 238.016L194.1 240.611L191.352 241.21L187.688 239.513L183.75 235.422L182.65 235.122L182.101 236.719L182.834 257.477L182.376 261.568L180.544 263.365L174.864 257.976L172.758 260.97L171.933 263.265H170.834L169.735 262.067L168.91 260.371L167.903 255.88L166.987 254.383L164.972 254.183L163.323 255.281L163.048 256.878L163.506 259.073L163.689 261.568L162.865 263.963L161.491 262.966L159.476 259.073L158.102 257.876L154.987 257.477L153.522 256.479L151.781 255.082L149.949 254.084L146.01 253.285L142.438 253.884L140.789 253.684L139.324 252.187L138.133 250.391L136.759 248.894L135.293 247.697L133.736 246.998L131.812 247.198L130.255 247.996L128.881 248.295L127.874 246.599L127.69 244.503L128.973 237.118L128.79 234.623L127.965 232.128L123.294 223.346L121.92 221.25L120.362 220.153L117.523 220.652L107.447 227.039L104.607 228.236L102.592 228.136L101.31 226.839L99.2944 222.647L98.1036 220.951L96.7296 219.554L93.6152 217.458L81.8904 216.061L78.8676 214.265L77.3104 210.372L79.0508 207.279L92.516 198.596L97.4624 194.305L100.119 192.908L102.592 191.112L104.607 187.918L106.989 182.13L110.653 177.539L118.805 169.855L121.37 168.158L129.614 167.06L132.454 165.863L133.37 163.867L133.644 156.881L135.11 152.39L138.499 151.392L142.621 151.592L146.01 150.694L157.735 141.113L164.605 138.918L167.628 136.622L168.91 132.032L168.636 131.932L170.742 131.233L181.734 133.928L182.742 134.127L183.933 134.028L186.956 133.03L188.696 132.032L189.52 131.732L199.871 131.433L202.161 132.131L215.993 138.918L217.184 139.317L218.832 138.918L221.489 139.516L230.74 143.708L232.298 144.407L233.855 145.404L235.87 147.4L241.274 147.6L242.832 147.201L244.389 146.203L246.221 143.808L247.045 141.512L247.87 137.72L248.419 136.123L249.152 134.626L250.251 133.429L252.175 132.531L253.64 132.032L259.869 130.934H262.526L263.625 131.333L264.816 132.63L265.457 133.928L265.915 135.225L266.922 135.924L268.388 136.323L271.044 136.123L273.884 136.323L276.724 138.319L278.189 138.818L281.487 137.62L282.861 137.521L285.517 139.317L290.097 141.213L291.838 142.211L293.395 143.508L297.334 148.099L298.524 148.698L299.898 148.798L302.463 148.398L304.204 147.7L305.211 146.602L305.394 145.504L305.486 144.107L305.669 142.81L307.043 141.512L309.242 140.514L317.211 138.319L317.852 138.419L318.493 139.217L320.325 140.115L322.982 139.117V139.117Z" fill="#7CC7D8" stroke="white" stroke-width="2" stroke-linecap="round" stroke-linejoin="round"/>
        <path d="M355.5 104.587L357.881 104.987L359.896 102.891L360.538 101.494L360.171 99.6974L360.354 98.2004L360.721 97.1026L361.362 96.2045H361.728L362.003 96.6037L362.553 98.6994L363.011 99.7972L363.835 100.596L365.209 101.095H366.034L368.415 100.795L369.698 101.095L370.797 102.791L370.98 103.689L371.072 105.086L370.797 106.084L370.43 106.783L368.232 109.078L366.858 111.174L366.4 112.272L366.217 114.268L363.835 117.761L362.644 118.459L357.606 120.854L355.866 121.353H354.492L352.202 119.956L351.561 119.657L348.446 119.158L346.523 119.258L345.057 119.657L341.851 121.154L340.569 121.353L339.378 121.054L338.37 120.655L336.813 120.355L335.622 120.555L334.065 121.054L332.508 121.254L330.584 121.852L328.203 123.15L327.562 123.748L326.646 125.046L325.73 125.944L324.63 126.144L321.882 126.044L320.966 126.443L320.417 127.142L320.142 128.04L319.409 131.732V133.229L319.684 133.828L320.234 134.327L323.256 135.325L323.898 135.824L324.081 136.622L323.806 137.321L322.982 139.117L320.325 140.115L318.493 139.217L317.852 138.419L317.211 138.319L309.242 140.514L307.043 141.512L305.669 142.81L305.486 144.107L305.394 145.504L305.211 146.602L304.204 147.7L302.463 148.398L299.898 148.798L298.524 148.698L297.334 148.099L293.395 143.508L291.838 142.211L290.097 141.213L285.517 139.317L282.861 137.521L281.487 137.62L278.189 138.818L276.724 138.319L273.884 136.323L271.044 136.123L268.388 136.323L266.922 135.924L265.915 135.225L265.457 133.928L264.816 132.63L263.625 131.333L262.526 130.934H259.869L253.64 132.032L252.175 132.531L250.251 133.429L249.152 134.626L248.419 136.123L247.87 137.72L247.045 141.512L246.221 143.808L244.389 146.203L242.832 147.201L241.274 147.6L235.87 147.4L233.855 145.404L232.298 144.406L230.74 143.708L221.489 139.516L218.832 138.918L217.184 139.317L215.993 138.918L202.161 132.131L199.871 131.433L189.52 131.732L188.696 132.032L186.956 133.03L183.933 134.028L182.742 134.127L181.734 133.928L170.742 131.233L168.636 131.932L165.979 130.934L154.346 121.852L151.69 120.655L149.033 121.054L145.369 123.948L143.537 125.844L141.156 125.245L139.415 124.247L136.118 120.655L135.66 118.759L136.667 116.862L139.69 113.769L142.346 110.176L142.896 108.779L142.713 107.881L142.255 107.082L142.072 105.785L142.621 103.39L143.537 100.995L144.728 98.899L146.01 97.6016L149.949 100.396L151.323 100.596L152.422 99.897L153.247 98.6994L153.43 97.2024L152.697 95.8053L149.766 93.011L148.942 91.8134L148.209 87.2227L151.232 85.127L158.468 83.9294L159.75 82.4325L160.208 80.6361L160.025 75.7461L160.208 73.1513L160.941 71.9538L164.056 70.7562L165.43 69.7582L166.437 68.2613L168.269 64.6686L169.643 63.8702L171.475 64.469L173.49 65.4669L175.231 65.8661L176.696 65.1676L177.979 63.7704L179.078 62.0738L179.994 60.1777L181.46 58.7805L183.475 58.6807L187.414 60.1777L188.788 59.4791L189.704 59.3793L190.528 59.8783L193.826 62.972L194.833 63.3712L196.299 63.0718L205.367 56.6848L208.115 55.6868L213.886 55.3874L216.817 54.1899L218.191 53.8905L219.474 54.5891L220.756 55.4872L222.13 56.1858L227.168 57.583L236.786 63.3712L239.442 64.2694L240.725 64.0698L243.106 62.7724L244.389 62.473L255.014 62.972L260.51 65.3671L270.312 72.5525L273.151 73.2511L279.197 73.1513L290.922 76.245L293.486 77.8418L295.502 80.2369L298.341 86.0252L300.448 88.2207L303.288 89.6179L306.036 90.516L308.875 90.6158L319.501 88.6199L323.165 88.8195L326.279 90.2166L327.928 91.6138L329.302 92.512L330.768 92.9112L336.722 93.4101L338.645 94.1087L339.836 95.8053L339.653 99.4978L339.744 102.192L340.66 103.789L348.263 105.186L353.21 107.382L355.5 106.883V104.587V104.587Z" fill="#7CC7D8" stroke="white" stroke-width="2" stroke-linecap="round" stroke-linejoin="round"/>
        <path d="M400.017 280.23L401.483 282.626L410.551 291.408L412.658 292.905L413.208 293.503L413.666 294.302L414.124 295.599L414.307 296.497L414.49 298.593L414.948 299.192L415.772 300.09L417.146 300.988L423.009 307.176L423.65 308.174L424.291 309.671L424.932 310.669L426.306 312.465L429.696 315.559L431.436 316.756L442.886 321.347L443.802 321.946L444.901 323.143L445.634 324.74V326.037L445.542 326.736L444.718 329.43L445.359 330.129L446.55 330.828L452.687 331.925L453.97 333.821L454.428 334.221L455.435 334.52L456.901 334.72L463.313 334.62L465.511 335.618L464.504 337.314L464.046 338.911L463.404 341.107L462.397 343.602L461.756 345.997L462.397 347.793L466.244 351.785L467.252 353.382L467.984 357.274L465.42 357.972L458.366 355.976L456.534 355.877L454.977 356.575L450.764 361.366L449.39 362.463L446.092 364.359L443.344 366.655L436.016 375.437L427.131 383.321L424.2 384.718L421.635 385.217L419.07 384.718L416.23 383.52L413.391 382.822L410.368 383.221L407.528 384.618L404.872 386.514L402.307 387.812L396.811 388.61L394.613 390.706L393.697 391.903L393.056 393.301L392.506 394.897L392.323 396.594L391.865 399.388L390.491 401.384L388.842 403.181L387.651 405.476L387.01 410.366L386.644 411.763L386.002 412.761L383.621 414.957L382.613 416.653L381.88 418.749L381.514 421.044L381.606 423.34L382.43 425.635L383.529 426.433L384.903 426.832L386.552 427.93L387.651 429.926L388.201 432.421L388.567 437.511L390.491 443.798L390.033 444.996L388.201 446.293L386.827 447.49L385.819 449.187L384.812 451.782L383.896 455.873L383.071 457.47L381.697 458.368L366.034 460.664L363.744 459.366L356.049 458.468L353.21 458.768L344.141 461.262L342.126 462.759L341.485 464.556L341.302 466.252L340.66 467.45L335.989 468.448L327.562 471.542L324.905 471.841L321.974 470.943L320.6 470.144L319.501 469.745L318.493 470.045L314.463 472.34L313.18 472.44L311.715 471.941L306.585 470.743L304.845 470.544L301.272 471.442L299.99 471.542L284.693 467.051H283.319L281.853 467.45L281.029 468.348L279.38 470.444L278.464 471.142H277.09L275.075 469.645L273.792 469.246L272.876 469.645L270.312 472.639L268.938 472.939L267.564 472.839L264.816 472.041L263.35 472.14L260.236 473.837L258.495 474.136L257.03 474.735L256.022 476.432L254.098 482.819L250.709 490.902L249.702 491.002L248.877 489.605L248.144 487.709L247.87 486.611V485.713L247.595 485.014L245.854 484.016L244.664 482.918L243.931 482.419L240.358 481.821L238.618 481.022L237.885 479.226L237.702 476.731L237.244 473.737L236.328 471.242L234.862 470.045L233.397 470.244L230.466 472.041L227.351 472.739L225.977 473.538L217.825 479.825L214.802 481.222L211.779 481.621L210.13 481.122L208.665 479.825L207.474 477.929L206.833 475.633L207.016 473.238L207.84 471.741L208.94 470.544L209.856 468.747L210.222 466.452L210.039 463.358L209.214 460.664L207.932 459.366L206.283 459.466L197.856 461.362L193.826 461.163L190.436 459.466L188.696 455.374L189.429 453.578L191.536 450.185L191.902 448.389L191.444 446.592L190.162 444.696L190.894 442.7L191.536 439.407L191.81 438.609L193.551 434.816L195.566 432.82L201.978 431.124L203.444 430.126L204.451 429.028L205.276 427.631L206.008 427.032L207.016 426.633H208.482L209.672 426.932L210.314 427.431L210.772 429.028L211.413 429.727L212.604 430.425L213.886 430.924L226.069 433.718L227.351 434.317L228.45 435.215L230.282 436.712L231.382 437.211L233.122 437.611L234.404 437.71L235.595 437.511L236.236 437.81L237.885 439.008L238.71 439.107L239.626 438.908L241.366 438.11L242.74 437.71L245.305 437.411L250.526 438.409L253.457 437.81L255.289 436.912L257.946 436.114L259.136 435.515L260.144 434.816L262.342 432.72L266.281 430.725L270.403 429.228L273.243 427.631L274.525 426.533L274.892 425.934L275.258 424.637L276.357 423.14L274.525 419.348L272.693 416.953L271.594 415.855L271.136 414.657L270.678 412.162L270.128 411.464L269.304 411.264L268.48 411.663L267.014 412.861H266.19L264.816 412.162L263.075 409.168L261.793 406.274L260.968 404.877L260.052 404.079L258.678 403.081L257.488 402.582L255.381 402.083L254.465 401.584L254.19 400.885L254.098 400.087L254.282 399.089L254.648 397.991L255.106 396.993L255.381 395.895L255.198 394.598L254.465 392.802L254.19 391.604L254.282 390.706L254.648 389.908L254.923 389.109L254.831 387.912L254.373 387.013L253.549 386.215L250.892 384.818L250.709 384.219L251.076 383.72L252.816 382.024L253.366 380.726L253.274 378.83L252.724 377.632L251.534 376.634L248.053 375.038L247.32 374.239L247.045 373.441L247.503 372.942L248.328 372.443L248.877 371.645L249.06 370.547L248.511 369.249L248.328 368.252V367.054L248.877 364.858L248.969 363.661L248.328 361.864L247.503 360.966L246.221 360.767L238.893 362.962L234.862 364.659L231.84 364.858L231.29 364.359L228.908 363.162L227.351 361.964L226.71 360.168L227.168 358.471L234.313 354.48L236.511 352.084L237.702 348.791L238.252 346.596L238.984 345.298L244.48 342.005L245.946 341.606L250.343 341.306L251.808 341.506L252.633 342.204L252.266 343.402L251.076 343.901L249.702 344.001L248.694 344.3L248.328 345.398L249.335 345.797L253.091 345.598L254.373 346.097L259.228 349.29L261.518 350.188L263.442 349.689L265.09 347.194L266.006 344.2L266.098 341.406L265.182 339.011L261.61 336.217L260.877 335.119V333.821L261.426 331.826V329.73L259.686 326.437L259.961 324.441L262.434 323.243L265.182 325.838L267.93 329.43L270.312 330.728L273.518 331.127L279.288 335.518L282.586 335.318L283.868 334.221L284.693 332.724L285.059 331.027L285.151 329.331L285.792 327.335H287.349L290.372 328.832L292.754 327.634L293.761 319.75L295.776 316.357L298.616 315.06L304.57 313.363L311.715 308.473L319.501 305.279L323.44 302.884L326.004 299.192L325.546 296.797L324.814 296.597L326.279 295.2L328.569 292.605L333.424 290.21L334.523 289.212L335.256 288.314L335.531 287.615V286.218L334.89 284.123V283.524L335.256 281.428L335.073 279.731L334.981 278.733L335.348 277.336L335.989 276.438L336.722 275.54L341.027 272.047L342.034 271.748L342.401 272.047L343.225 273.145L343.775 274.243L344.233 274.742L345.424 274.542L346.156 274.243L346.889 272.546L347.439 271.448L348.08 270.75L349.088 270.051L349.637 269.253L351.194 266.458L352.019 265.46L352.935 265.76L355.683 265.66L362.736 266.359L363.652 266.259L364.843 265.86L365.301 265.56L365.576 265.061L365.484 264.063L365.026 262.267L365.301 261.269L366.217 260.67L368.69 260.171H369.148L371.163 262.966L371.53 263.864V265.061L371.072 265.86L364.018 273.145L363.011 274.442L362.553 275.64L363.011 276.239L365.118 276.438L365.759 277.236L366.034 279.232L366.308 279.731L366.858 280.031L368.324 280.23L369.331 280.729L370.98 282.226L372.079 282.526L372.904 282.127L372.995 281.029L372.904 278.534L372.995 277.636L373.27 276.638L374.003 275.64L375.01 274.542L378.125 272.247L378.674 271.648L383.071 263.664L384.445 261.868L385.728 261.668L386.644 262.067L387.01 262.467L387.102 263.065L386.827 264.762L387.01 265.86L387.56 266.558L389.208 267.955L389.575 268.854L389.666 269.951L389.575 271.548L389.758 273.344L390.124 274.243L390.491 274.841L400.017 280.23V280.23Z" fill="#7CC7D8" stroke="white" stroke-width="2" stroke-linecap="round" stroke-linejoin="round"/>
        <g filter="url(#filter0_d)">
            <circle cx="437.66" cy="65.6599" r="21.6599" fill="white"/>
        </g>
        <circle cx="437.66" cy="65.6605" r="16.296" fill="white" stroke="#0F980C" stroke-width="3.06015"/>
        <circle cx="437.659" cy="65.6609" r="7.81367" fill="#0F980C"/>
        <g filter="url(#filter1_d)">
            <circle cx="45.8887" cy="395.889" r="16.8887" fill="white"/>
        </g>
        <circle cx="45.889" cy="395.889" r="12.7064" fill="white" stroke="#0F980C" stroke-width="2.38607"/>
        <circle cx="45.8885" cy="395.889" r="6.09249" fill="#0F980C"/>
        <g filter="url(#filter2_d)">
            <circle cx="318.734" cy="401.734" r="18.7342" fill="white"/>
        </g>
        <circle cx="318.734" cy="401.735" r="14.0949" fill="white" stroke="#0F980C" stroke-width="2.64681"/>
        <circle cx="318.734" cy="401.735" r="6.75825" fill="#0F980C"/>
        <g filter="url(#filter3_d)">
            <circle cx="311.812" cy="347.812" r="12.8124" fill="white"/>
        </g>
        <circle cx="311.813" cy="347.813" r="9.63949" fill="white" stroke="#0F980C" stroke-width="1.81015"/>
        <circle cx="311.812" cy="347.813" r="4.62197" fill="#0F980C"/>
        <g filter="url(#filter4_d)">
            <circle cx="373.661" cy="347.661" r="17.6608" fill="white"/>
        </g>
        <circle cx="373.661" cy="347.661" r="13.2872" fill="white" stroke="#0F980C" stroke-width="2.49515"/>
        <circle cx="373.66" cy="347.661" r="6.37101" fill="#0F980C"/>
        <g filter="url(#filter5_d)">
            <circle cx="315.694" cy="259.694" r="21.6937" fill="white"/>
        </g>
        <circle cx="315.694" cy="259.694" r="16.3214" fill="white" stroke="#0F980C" stroke-width="3.06492"/>
        <circle cx="315.693" cy="259.695" r="7.82584" fill="#0F980C"/>
        <g filter="url(#filter6_d)">
            <circle cx="385.37" cy="233.37" r="18.3702" fill="white"/>
        </g>
        <circle cx="385.37" cy="233.371" r="13.821" fill="white" stroke="#0F980C" stroke-width="2.59537"/>
        <circle cx="385.37" cy="233.371" r="6.62692" fill="#0F980C"/>
        <g filter="url(#filter7_d)">
            <circle cx="228.37" cy="101.37" r="18.3702" fill="white"/>
        </g>
        <circle cx="228.37" cy="101.371" r="13.821" fill="white" stroke="#0F980C" stroke-width="2.59537"/>
        <circle cx="228.37" cy="101.371" r="6.62692" fill="#0F980C"/>
        <g filter="url(#filter8_d)">
            <circle cx="550.37" cy="258.37" r="18.3702" fill="white"/>
        </g>
        <circle cx="550.37" cy="258.371" r="13.821" fill="white" stroke="#0F980C" stroke-width="2.59537"/>
        <circle cx="550.37" cy="258.371" r="6.62692" fill="#0F980C"/>
        <g filter="url(#filter9_d)">
            <circle cx="664.37" cy="105.37" r="18.3702" fill="white"/>
        </g>
        <circle cx="664.37" cy="105.371" r="13.821" fill="white" stroke="#0F980C" stroke-width="2.59537"/>
        <circle cx="664.37" cy="105.371" r="6.62692" fill="#0F980C"/>
        <g filter="url(#filter10_d)">
            <circle cx="139.171" cy="420.171" r="17.1711" fill="white"/>
        </g>
        <circle cx="139.171" cy="420.171" r="12.9188" fill="white" stroke="#0F980C" stroke-width="2.42596"/>
        <circle cx="139.171" cy="420.172" r="6.19436" fill="#0F980C"/>
        <g filter="url(#filter11_d)">
            <circle cx="184.271" cy="410.271" r="11.2715" fill="white"/>
        </g>
        <circle cx="184.272" cy="410.272" r="8.48018" fill="white" stroke="#0F980C" stroke-width="1.59245"/>
        <circle cx="184.271" cy="410.272" r="4.0661" fill="#0F980C"/>
        <g filter="url(#filter12_d)">
            <circle cx="164.271" cy="417.271" r="11.2715" fill="white"/>
        </g>
        <circle cx="164.272" cy="417.272" r="8.48018" fill="white" stroke="#0F980C" stroke-width="1.59245"/>
        <circle cx="164.271" cy="417.272" r="4.0661" fill="#0F980C"/>
        <g filter="url(#filter13_d)">
            <circle cx="121.271" cy="410.271" r="11.2715" fill="white"/>
        </g>
        <circle cx="121.272" cy="410.272" r="8.48018" fill="white" stroke="#0F980C" stroke-width="1.59245"/>
        <circle cx="121.271" cy="410.272" r="4.0661" fill="#0F980C"/>
    </g>
    <defs>
        <filter id="filter0_d" x="403.759" y="44" width="67.8011" height="67.8011" filterUnits="userSpaceOnUse" color-interpolation-filters="sRGB">
            <feFlood flood-opacity="0" result="BackgroundImageFix"/>
            <feColorMatrix in="SourceAlpha" type="matrix" values="0 0 0 0 0 0 0 0 0 0 0 0 0 0 0 0 0 0 127 0"/>
            <feOffset dy="12.2406"/>
            <feGaussianBlur stdDeviation="6.1203"/>
            <feColorMatrix type="matrix" values="0 0 0 0 0.529167 0 0 0 0 0.529167 0 0 0 0 0.529167 0 0 0 0.14 0"/>
            <feBlend mode="normal" in2="BackgroundImageFix" result="effect1_dropShadow"/>
            <feBlend mode="normal" in="SourceGraphic" in2="effect1_dropShadow" result="shape"/>
        </filter>
        <filter id="filter1_d" x="19.4557" y="379" width="52.866" height="52.866" filterUnits="userSpaceOnUse" color-interpolation-filters="sRGB">
            <feFlood flood-opacity="0" result="BackgroundImageFix"/>
            <feColorMatrix in="SourceAlpha" type="matrix" values="0 0 0 0 0 0 0 0 0 0 0 0 0 0 0 0 0 0 127 0"/>
            <feOffset dy="9.54427"/>
            <feGaussianBlur stdDeviation="4.77214"/>
            <feColorMatrix type="matrix" values="0 0 0 0 0.529167 0 0 0 0 0.529167 0 0 0 0 0.529167 0 0 0 0.14 0"/>
            <feBlend mode="normal" in2="BackgroundImageFix" result="effect1_dropShadow"/>
            <feBlend mode="normal" in="SourceGraphic" in2="effect1_dropShadow" result="shape"/>
        </filter>
        <filter id="filter2_d" x="289.413" y="383" width="58.6429" height="58.6429" filterUnits="userSpaceOnUse" color-interpolation-filters="sRGB">
            <feFlood flood-opacity="0" result="BackgroundImageFix"/>
            <feColorMatrix in="SourceAlpha" type="matrix" values="0 0 0 0 0 0 0 0 0 0 0 0 0 0 0 0 0 0 127 0"/>
            <feOffset dy="10.5872"/>
            <feGaussianBlur stdDeviation="5.29361"/>
            <feColorMatrix type="matrix" values="0 0 0 0 0.529167 0 0 0 0 0.529167 0 0 0 0 0.529167 0 0 0 0.14 0"/>
            <feBlend mode="normal" in2="BackgroundImageFix" result="effect1_dropShadow"/>
            <feBlend mode="normal" in="SourceGraphic" in2="effect1_dropShadow" result="shape"/>
        </filter>
        <filter id="filter3_d" x="291.759" y="335" width="40.106" height="40.106" filterUnits="userSpaceOnUse" color-interpolation-filters="sRGB">
            <feFlood flood-opacity="0" result="BackgroundImageFix"/>
            <feColorMatrix in="SourceAlpha" type="matrix" values="0 0 0 0 0 0 0 0 0 0 0 0 0 0 0 0 0 0 127 0"/>
            <feOffset dy="7.24061"/>
            <feGaussianBlur stdDeviation="3.62031"/>
            <feColorMatrix type="matrix" values="0 0 0 0 0.529167 0 0 0 0 0.529167 0 0 0 0 0.529167 0 0 0 0.14 0"/>
            <feBlend mode="normal" in2="BackgroundImageFix" result="effect1_dropShadow"/>
            <feBlend mode="normal" in="SourceGraphic" in2="effect1_dropShadow" result="shape"/>
        </filter>
        <filter id="filter4_d" x="346.019" y="330" width="55.2827" height="55.2827" filterUnits="userSpaceOnUse" color-interpolation-filters="sRGB">
            <feFlood flood-opacity="0" result="BackgroundImageFix"/>
            <feColorMatrix in="SourceAlpha" type="matrix" values="0 0 0 0 0 0 0 0 0 0 0 0 0 0 0 0 0 0 127 0"/>
            <feOffset dy="9.98059"/>
            <feGaussianBlur stdDeviation="4.99029"/>
            <feColorMatrix type="matrix" values="0 0 0 0 0.529167 0 0 0 0 0.529167 0 0 0 0 0.529167 0 0 0 0.14 0"/>
            <feBlend mode="normal" in2="BackgroundImageFix" result="effect1_dropShadow"/>
            <feBlend mode="normal" in="SourceGraphic" in2="effect1_dropShadow" result="shape"/>
        </filter>
        <filter id="filter5_d" x="281.74" y="238" width="67.9067" height="67.9067" filterUnits="userSpaceOnUse" color-interpolation-filters="sRGB">
            <feFlood flood-opacity="0" result="BackgroundImageFix"/>
            <feColorMatrix in="SourceAlpha" type="matrix" values="0 0 0 0 0 0 0 0 0 0 0 0 0 0 0 0 0 0 127 0"/>
            <feOffset dy="12.2597"/>
            <feGaussianBlur stdDeviation="6.12984"/>
            <feColorMatrix type="matrix" values="0 0 0 0 0.529167 0 0 0 0 0.529167 0 0 0 0 0.529167 0 0 0 0.14 0"/>
            <feBlend mode="normal" in2="BackgroundImageFix" result="effect1_dropShadow"/>
            <feBlend mode="normal" in="SourceGraphic" in2="effect1_dropShadow" result="shape"/>
        </filter>
        <filter id="filter6_d" x="356.619" y="215" width="57.5034" height="57.5034" filterUnits="userSpaceOnUse" color-interpolation-filters="sRGB">
            <feFlood flood-opacity="0" result="BackgroundImageFix"/>
            <feColorMatrix in="SourceAlpha" type="matrix" values="0 0 0 0 0 0 0 0 0 0 0 0 0 0 0 0 0 0 127 0"/>
            <feOffset dy="10.3815"/>
            <feGaussianBlur stdDeviation="5.19075"/>
            <feColorMatrix type="matrix" values="0 0 0 0 0.529167 0 0 0 0 0.529167 0 0 0 0 0.529167 0 0 0 0.14 0"/>
            <feBlend mode="normal" in2="BackgroundImageFix" result="effect1_dropShadow"/>
            <feBlend mode="normal" in="SourceGraphic" in2="effect1_dropShadow" result="shape"/>
        </filter>
        <filter id="filter7_d" x="199.619" y="83" width="57.5034" height="57.5034" filterUnits="userSpaceOnUse" color-interpolation-filters="sRGB">
            <feFlood flood-opacity="0" result="BackgroundImageFix"/>
            <feColorMatrix in="SourceAlpha" type="matrix" values="0 0 0 0 0 0 0 0 0 0 0 0 0 0 0 0 0 0 127 0"/>
            <feOffset dy="10.3815"/>
            <feGaussianBlur stdDeviation="5.19075"/>
            <feColorMatrix type="matrix" values="0 0 0 0 0.529167 0 0 0 0 0.529167 0 0 0 0 0.529167 0 0 0 0.14 0"/>
            <feBlend mode="normal" in2="BackgroundImageFix" result="effect1_dropShadow"/>
            <feBlend mode="normal" in="SourceGraphic" in2="effect1_dropShadow" result="shape"/>
        </filter>
        <filter id="filter8_d" x="521.619" y="240" width="57.5034" height="57.5034" filterUnits="userSpaceOnUse" color-interpolation-filters="sRGB">
            <feFlood flood-opacity="0" result="BackgroundImageFix"/>
            <feColorMatrix in="SourceAlpha" type="matrix" values="0 0 0 0 0 0 0 0 0 0 0 0 0 0 0 0 0 0 127 0"/>
            <feOffset dy="10.3815"/>
            <feGaussianBlur stdDeviation="5.19075"/>
            <feColorMatrix type="matrix" values="0 0 0 0 0.529167 0 0 0 0 0.529167 0 0 0 0 0.529167 0 0 0 0.14 0"/>
            <feBlend mode="normal" in2="BackgroundImageFix" result="effect1_dropShadow"/>
            <feBlend mode="normal" in="SourceGraphic" in2="effect1_dropShadow" result="shape"/>
        </filter>
        <filter id="filter9_d" x="635.619" y="87" width="57.5034" height="57.5034" filterUnits="userSpaceOnUse" color-interpolation-filters="sRGB">
            <feFlood flood-opacity="0" result="BackgroundImageFix"/>
            <feColorMatrix in="SourceAlpha" type="matrix" values="0 0 0 0 0 0 0 0 0 0 0 0 0 0 0 0 0 0 127 0"/>
            <feOffset dy="10.3815"/>
            <feGaussianBlur stdDeviation="5.19075"/>
            <feColorMatrix type="matrix" values="0 0 0 0 0.529167 0 0 0 0 0.529167 0 0 0 0 0.529167 0 0 0 0.14 0"/>
            <feBlend mode="normal" in2="BackgroundImageFix" result="effect1_dropShadow"/>
            <feBlend mode="normal" in="SourceGraphic" in2="effect1_dropShadow" result="shape"/>
        </filter>
        <filter id="filter10_d" x="112.296" y="403" width="53.7499" height="53.7499" filterUnits="userSpaceOnUse" color-interpolation-filters="sRGB">
            <feFlood flood-opacity="0" result="BackgroundImageFix"/>
            <feColorMatrix in="SourceAlpha" type="matrix" values="0 0 0 0 0 0 0 0 0 0 0 0 0 0 0 0 0 0 127 0"/>
            <feOffset dy="9.70385"/>
            <feGaussianBlur stdDeviation="4.85193"/>
            <feColorMatrix type="matrix" values="0 0 0 0 0.529167 0 0 0 0 0.529167 0 0 0 0 0.529167 0 0 0 0.14 0"/>
            <feBlend mode="normal" in2="BackgroundImageFix" result="effect1_dropShadow"/>
            <feBlend mode="normal" in="SourceGraphic" in2="effect1_dropShadow" result="shape"/>
        </filter>
        <filter id="filter11_d" x="166.63" y="399" width="35.2825" height="35.2825" filterUnits="userSpaceOnUse" color-interpolation-filters="sRGB">
            <feFlood flood-opacity="0" result="BackgroundImageFix"/>
            <feColorMatrix in="SourceAlpha" type="matrix" values="0 0 0 0 0 0 0 0 0 0 0 0 0 0 0 0 0 0 127 0"/>
            <feOffset dy="6.3698"/>
            <feGaussianBlur stdDeviation="3.1849"/>
            <feColorMatrix type="matrix" values="0 0 0 0 0.529167 0 0 0 0 0.529167 0 0 0 0 0.529167 0 0 0 0.14 0"/>
            <feBlend mode="normal" in2="BackgroundImageFix" result="effect1_dropShadow"/>
            <feBlend mode="normal" in="SourceGraphic" in2="effect1_dropShadow" result="shape"/>
        </filter>
        <filter id="filter12_d" x="146.63" y="406" width="35.2825" height="35.2825" filterUnits="userSpaceOnUse" color-interpolation-filters="sRGB">
            <feFlood flood-opacity="0" result="BackgroundImageFix"/>
            <feColorMatrix in="SourceAlpha" type="matrix" values="0 0 0 0 0 0 0 0 0 0 0 0 0 0 0 0 0 0 127 0"/>
            <feOffset dy="6.3698"/>
            <feGaussianBlur stdDeviation="3.1849"/>
            <feColorMatrix type="matrix" values="0 0 0 0 0.529167 0 0 0 0 0.529167 0 0 0 0 0.529167 0 0 0 0.14 0"/>
            <feBlend mode="normal" in2="BackgroundImageFix" result="effect1_dropShadow"/>
            <feBlend mode="normal" in="SourceGraphic" in2="effect1_dropShadow" result="shape"/>
        </filter>
        <filter id="filter13_d" x="103.63" y="399" width="35.2825" height="35.2825" filterUnits="userSpaceOnUse" color-interpolation-filters="sRGB">
            <feFlood flood-opacity="0" result="BackgroundImageFix"/>
            <feColorMatrix in="SourceAlpha" type="matrix" values="0 0 0 0 0 0 0 0 0 0 0 0 0 0 0 0 0 0 127 0"/>
            <feOffset dy="6.3698"/>
            <feGaussianBlur stdDeviation="3.1849"/>
            <feColorMatrix type="matrix" values="0 0 0 0 0.529167 0 0 0 0 0.529167 0 0 0 0 0.529167 0 0 0 0.14 0"/>
            <feBlend mode="normal" in2="BackgroundImageFix" result="effect1_dropShadow"/>
            <feBlend mode="normal" in="SourceGraphic" in2="effect1_dropShadow" result="shape"/>
        </filter>
        <clipPath id="clip0">
            <rect width="916" height="492" fill="white"/>
        </clipPath>
    </defs>
</svg>
