<svg width="86" height="101" viewBox="0 0 86 101" fill="none" xmlns="http://www.w3.org/2000/svg">
    <path d="M71.3333 13.0493H14.6667C12.7881 13.0493 10.9864 13.9273 9.658 15.4901C8.32962 17.0529 7.58334 19.1725 7.58334 21.3826V38.0493C7.58334 40.2595 8.32962 42.3791 9.658 43.9419C10.9864 45.5047 12.7881 46.3826 14.6667 46.3826H71.3333C73.212 46.3826 75.0136 45.5047 76.342 43.9419C77.6704 42.3791 78.4167 40.2595 78.4167 38.0493V21.3826C78.4167 19.1725 77.6704 17.0529 76.342 15.4901C75.0136 13.9273 73.212 13.0493 71.3333 13.0493ZM53.625 30.341C53.625 32.297 52.0394 33.8826 50.0833 33.8826V33.8826C48.1273 33.8826 46.5417 32.297 46.5417 30.341V29.091C46.5417 27.135 48.1273 25.5493 50.0833 25.5493V25.5493C52.0394 25.5493 53.625 27.135 53.625 29.091V30.341ZM67.7917 30.341C67.7917 32.297 66.206 33.8826 64.25 33.8826V33.8826C62.294 33.8826 60.7083 32.297 60.7083 30.341V29.091C60.7083 27.135 62.294 25.5493 64.25 25.5493V25.5493C66.206 25.5493 67.7917 27.135 67.7917 29.091V30.341ZM71.3333 54.716H14.6667C12.7881 54.716 10.9864 55.594 9.658 57.1568C8.32962 58.7196 7.58334 60.8392 7.58334 63.0493V79.716C7.58334 81.9261 8.32962 84.0457 9.658 85.6085C10.9864 87.1713 12.7881 88.0493 14.6667 88.0493H71.3333C73.212 88.0493 75.0136 87.1713 76.342 85.6085C77.6704 84.0457 78.4167 81.9261 78.4167 79.716V63.0493C78.4167 60.8392 77.6704 58.7196 76.342 57.1568C75.0136 55.594 73.212 54.716 71.3333 54.716ZM53.625 72.0076C53.625 73.9637 52.0394 75.5493 50.0833 75.5493V75.5493C48.1273 75.5493 46.5417 73.9637 46.5417 72.0076V70.7576C46.5417 68.8016 48.1273 67.216 50.0833 67.216V67.216C52.0394 67.216 53.625 68.8016 53.625 70.7576V72.0076ZM67.7917 72.0076C67.7917 73.9637 66.206 75.5493 64.25 75.5493V75.5493C62.294 75.5493 60.7083 73.9637 60.7083 72.0076V70.7576C60.7083 68.8016 62.294 67.216 64.25 67.216V67.216C66.206 67.216 67.7917 68.8016 67.7917 70.7576V72.0076Z" fill="#0F980C"/>
</svg>
