<svg width="81" height="100" viewBox="0 0 81 100" fill="none" xmlns="http://www.w3.org/2000/svg">
    <path fill-rule="evenodd" clip-rule="evenodd" d="M40.5 40C45.3307 40 49.9636 37.8929 53.3794 34.1421C56.7953 30.3914 58.7143 25.3043 58.7143 20C58.7143 14.6957 56.7953 9.60859 53.3794 5.85787C49.9636 2.10714 45.3307 0 40.5 0C35.6693 0 31.0364 2.10714 27.6206 5.85787C24.2047 9.60859 22.2857 14.6957 22.2857 20C22.2857 25.3043 24.2047 30.3914 27.6206 34.1421C31.0364 37.8929 35.6693 40 40.5 40ZM16.2476 100C6.16975 100 -2.3219 91.5707 1.23512 82.1414V82.1414C3.37095 76.4796 6.50147 71.3351 10.448 67.0017C14.3945 62.6683 19.0796 59.2308 24.236 56.8856C29.3923 54.5404 34.9188 53.3333 40.5 53.3333C46.0812 53.3333 51.6077 54.5404 56.7641 56.8856C61.9204 59.2308 66.6055 62.6683 70.552 67.0017C74.4985 71.3351 77.6291 76.4796 79.7649 82.1414V82.1414C83.3219 91.5707 74.8302 100 64.7523 100H16.2476Z" fill="#0F980C"/>
</svg>
